<svg class="canvas" viewBox="0 0 1920 1080" preserveAspectRatio="xMaxYMid slice" xmlns="http://www.w3.org/2000/svg" version="1.1" xmlns:xlink="http://www.w3.org/1999/xlink" xmlns:svgjs="http://svgjs.com/svgjs"><rect width="1920" height="1080" fill="hsl(192, 65%, 15%)"></rect><defs><linearGradient x1="0.5" y1="0" x2="0" y2="1" id="SvgjsLinearGradient1084"><stop stop-color="#288a8a" offset="0"></stop><stop stop-color="#060614" offset="0.1"></stop></linearGradient><linearGradient x1="0.5" y1="0" x2="0" y2="1" id="SvgjsLinearGradient1085"><stop stop-color="#284f8a" offset="0"></stop><stop stop-color="#0e0614" offset="0.22857142857142856"></stop></linearGradient><linearGradient x1="0.5" y1="0" x2="0" y2="1" id="SvgjsLinearGradient1086"><stop stop-color="#28638a" offset="0"></stop><stop stop-color="#0b0614" offset="0.3571428571428571"></stop></linearGradient><linearGradient x1="0.5" y1="0" x2="0" y2="1" id="SvgjsLinearGradient1087"><stop stop-color="#c0f2f2" offset="0"></stop><stop stop-color="#4242d7" offset="0.48571428571428565"></stop></linearGradient><linearGradient x1="0.5" y1="0" x2="0" y2="1" id="SvgjsLinearGradient1088"><stop stop-color="#c0e8f2" offset="0"></stop><stop stop-color="#5f42d7" offset="0.6142857142857142"></stop></linearGradient><linearGradient x1="0.5" y1="0" x2="0" y2="1" id="SvgjsLinearGradient1089"><stop stop-color="#c0def2" offset="0"></stop><stop stop-color="#7d42d7" offset="0.7428571428571429"></stop></linearGradient><linearGradient x1="0.5" y1="0" x2="0" y2="1" id="SvgjsLinearGradient1090"><stop stop-color="#c0e8f2" offset="0"></stop><stop stop-color="#5f42d7" offset="0.8714285714285713"></stop></linearGradient></defs><path d="M0,-541.255174712763C76.74266592439706,-512.4353575054878,297.0812076278721,-419.2464323243407,460.4559955463824,-368.33627146911124C623.8307834648926,-317.4261106138818,822.522279661151,-275.75980733970636,980.2487275110618,-235.79420958138655C1137.9751753609728,-195.82861182306675,1250.189470564358,-167.63252406396293,1406.8146826458478,-128.54268491919237C1563.4398947273376,-89.45284577442179,1834.469113774308,-22.469759747167966,1920,-1.2551747127630861L 1920 1080 L 0 1080 Z" fill="url(#SvgjsLinearGradient1084)"></path><path d="M0,-424.8294731311498C45.808072696418286,-400.3181616859425,159.59946588600525,-312.42760296775594,274.8484361785097,-277.76160445990587C390.09740647101415,-243.09560595205582,580.2504489293982,-237.90880062106828,691.4938217550266,-216.83348208404948C802.737194580655,-195.75816354703068,848.8108004987207,-184.17168108117343,942.3086731322802,-151.309693237793C1035.8065457658397,-118.44770539441257,1139.503624139344,-57.822649645925196,1252.4810575563836,-19.66155502376683C1365.458490973423,18.499539598391536,1508.920116560581,52.80390846543533,1620.173273634517,77.65687449515721C1731.4264307084532,102.5098405248791,1870.028878939086,120.82301337799663,1920,129.4562411545645L 1920 1080 L 0 1080 Z" fill="url(#SvgjsLinearGradient1085)"></path><path d="M0,-328.49326652374896C60.641527263501125,-319.6073225002651,254.03527930278403,-314.578828931041,363.84916358100674,-275.1776023828461C473.66304785922944,-235.77637583465116,557.736082099268,-127.08650386576545,658.8833056693362,-92.08590723457947C760.0305292394045,-57.08531060339349,869.332138757148,-81.90517208456482,970.7325050014165,-65.17402259573024C1072.132871245685,-48.44287310689565,1163.5317232948098,-29.392823226640147,1267.285503134947,8.300989698428033C1371.0392829750842,45.99480262349621,1484.4694345647304,122.35932622980359,1593.2551840422393,160.98885495467886C1702.0409335197483,199.61838367955414,1865.5425306737066,226.89661086551286,1920,240.07816204767965L 1920 1080 L 0 1080 Z" fill="url(#SvgjsLinearGradient1086)"></path><path d="M0,-187.43102363194632C48.656908668841254,-171.2644993132651,189.03391022902952,-126.40864486225777,291.9414520130475,-90.43187771985903C394.84899379706553,-54.45511057746028,506.786707800428,-9.315159162658531,617.4452507041082,28.42957922244615C728.1037936077884,66.17431760755083,843.3562968362346,105.32221586050252,955.8927094351285,136.03655259076908C1068.4291220340224,166.75088932103563,1186.0167691879176,189.18119794768464,1292.6637262974716,212.71559960404548C1399.3106834070256,236.25000126040632,1491.218406475365,246.79120925874224,1595.7744520924532,277.2429625289341C1700.3304977095413,307.6947157991259,1865.9624086820754,375.7289264424861,1920,395.42611922519654L 1920 1080 L 0 1080 Z" fill="url(#SvgjsLinearGradient1087)"></path><path d="M0,1.6827333948674692C66.49397203863532,30.38283681333561,272.9664809753745,128.05906247045604,398.9638322318119,173.8833539056763C524.9611834882493,219.70764534089656,627.3282908209914,239.89667058610826,755.9841075386244,276.628482006189C884.6399242562574,313.3602934262698,1050.7505794612468,359.41733348580266,1170.89873253761,394.2742224261608C1291.046885613973,429.13111136651895,1352.022814753071,451.6779209630774,1476.8730259968027,485.769815648338C1601.7232372405342,519.8617103335987,1846.1455043328006,579.9829613894935,1920,598.8255905377247L 1920 1080 L 0 1080 Z" fill="url(#SvgjsLinearGradient1088)"></path><path d="M0,136.647890490088C60.45545700152608,160.9454919687689,254.65051131375083,249.4304205920296,362.7327420091565,282.4334993621733C470.81497270456214,315.436578132317,548.1825396287538,315.3826711105286,648.4933841724339,334.66636311095004C748.804228716114,353.9500551113715,857.8609952746798,363.6870829795138,964.5978092712368,398.13565136470226C1071.3346232677939,432.58421974989074,1182.3569521391614,495.751994990931,1288.914268151776,541.3577734220809C1395.4715841643906,586.9635518532307,1498.7607500388872,637.3172072021716,1603.9417053469244,671.7703219516014C1709.1226606549617,706.2234367010312,1867.3236175578209,735.3587719241498,1920,748.0764619186594L 1920 1080 L 0 1080 Z" fill="url(#SvgjsLinearGradient1089)"></path><path d="M0,197.38196197325962C52.50038337925779,218.8682645673855,219.25303070976713,301.49137538100354,315.00230027554676,326.29977753801495C410.7515698413264,351.10817969502637,491.7931485444874,331.9854297033482,574.4956173946779,346.2323749153281C657.1980862448684,360.479320127308,724.6189943937263,372.9334489970164,811.2171133766897,411.78144880989436C897.815232359653,450.6294486227723,997.7057334293199,533.7122724367166,1094.0843312924583,579.320373792596C1190.4629291555966,624.9284751484754,1289.5979290531998,651.2442832189327,1389.48870055552,685.4300569451708C1489.37947205784,719.615830671409,1605.0104103989659,761.490651026296,1693.4289603063792,784.435016150025C1781.8475102137925,807.3793812737541,1882.2381600510632,816.6527090979587,1920,823.0962476875454L 1920 1080 L 0 1080 Z" fill="url(#SvgjsLinearGradient1090)"></path></svg>